<?xml version="1.0" encoding="UTF-8" standalone="no"?>
<!-- Created with Inkscape (http://www.inkscape.org/) -->

<svg
   xmlns:dc="http://purl.org/dc/elements/1.1/"
   xmlns:cc="http://creativecommons.org/ns#"
   xmlns:rdf="http://www.w3.org/1999/02/22-rdf-syntax-ns#"
   xmlns:svg="http://www.w3.org/2000/svg"
   xmlns="http://www.w3.org/2000/svg"
   xmlns:sodipodi="http://sodipodi.sourceforge.net/DTD/sodipodi-0.dtd"
   xmlns:inkscape="http://www.inkscape.org/namespaces/inkscape"
   width="107.98351mm"
   height="106.37414mm"
   viewBox="0 0 107.98351 106.37414"
   version="1.1"
   id="svg3505"
   inkscape:version="0.92.3 (2405546, 2018-03-11)"
   sodipodi:docname="baby_1.svg">
  <defs
     id="defs3499" />
  <sodipodi:namedview
     id="base"
     pagecolor="#ffffff"
     bordercolor="#666666"
     borderopacity="1.0"
     inkscape:pageopacity="0.0"
     inkscape:pageshadow="2"
     inkscape:zoom="0.35"
     inkscape:cx="312.63474"
     inkscape:cy="-4.6921388"
     inkscape:document-units="mm"
     inkscape:current-layer="layer1"
     showgrid="false"
     fit-margin-top="0"
     fit-margin-left="0"
     fit-margin-right="0"
     fit-margin-bottom="0"
     inkscape:window-width="1853"
     inkscape:window-height="1025"
     inkscape:window-x="67"
     inkscape:window-y="27"
     inkscape:window-maximized="1" />
  <metadata
     id="metadata3502">
    <rdf:RDF>
      <cc:Work
         rdf:about="">
        <dc:format>image/svg+xml</dc:format>
        <dc:type
           rdf:resource="http://purl.org/dc/dcmitype/StillImage" />
        <dc:title></dc:title>
      </cc:Work>
    </rdf:RDF>
  </metadata>
  <g
     inkscape:label="Capa 1"
     inkscape:groupmode="layer"
     id="layer1"
     transform="translate(-23.115392,-41.217732)">
    <g
       transform="matrix(0.35277777,0,0,-0.35277777,-84.61158,2198.4321)"
       id="g3523">
      <g
         transform="translate(458.5034,5821.7803)"
         id="g86">
        <path
           inkscape:connector-curvature="0"
           id="path88"
           style="fill:#fcd7b9;fill-opacity:1;fill-rule:nonzero;stroke:none"
           d="m 0,0 c -69.266,0 -125.615,56.361 -125.615,125.634 0,66.324 51.695,120.776 116.91,125.266 -0.775,-1.226 -2.568,-2.365 -5.525,-4.023 -4.337,-2.441 -10.27,-5.775 -10.27,-12.79 0,-2.314 1.875,-4.194 4.19,-4.194 2.312,0 4.186,1.88 4.186,4.194 0,1.903 1.918,3.194 5.997,5.487 4.087,2.294 9.528,5.422 10.147,11.664 8.782,0 17.362,-0.92 25.641,-2.642 -0.81,-0.525 -1.743,-1.083 -2.883,-1.719 -4.326,-2.441 -10.255,-5.775 -10.255,-12.79 0,-2.314 1.871,-4.194 4.185,-4.194 2.318,0 4.189,1.88 4.189,4.194 0,1.91 1.92,3.194 5.987,5.487 2.791,1.569 6.235,3.531 8.336,6.598 C 87.392,230.909 125.621,182.67 125.621,125.634 125.621,56.361 69.267,0 0,0" />
      </g>
      <g
         transform="translate(418.1387,5969.4424)"
         id="g90">
        <path
           inkscape:connector-curvature="0"
           id="path92"
           style="fill:#00354b;fill-opacity:1;fill-rule:nonzero;stroke:none"
           d="M 0,0 C 8.266,0 14.967,6.705 14.967,14.957 14.967,23.23 8.266,29.923 0,29.923 -8.256,29.923 -14.955,23.23 -14.955,14.957 -14.955,6.705 -8.256,0 0,0" />
      </g>
      <g
         transform="translate(498.8682,5969.4424)"
         id="g94">
        <path
           inkscape:connector-curvature="0"
           id="path96"
           style="fill:#00354b;fill-opacity:1;fill-rule:nonzero;stroke:none"
           d="M 0,0 C 8.258,0 14.967,6.705 14.967,14.957 14.967,23.23 8.258,29.923 0,29.923 -8.271,29.923 -14.949,23.23 -14.949,14.957 -14.949,6.705 -8.271,0 0,0" />
      </g>
      <g
         transform="translate(591.9658,5935.8535)"
         id="g98">
        <path
           inkscape:connector-curvature="0"
           id="path100"
           style="fill:#00354b;fill-opacity:1;fill-rule:nonzero;stroke:none"
           d="m 0,0 c 0.327,3.812 0.533,7.667 0.533,11.561 0,5.813 -0.412,11.537 -1.137,17.164 C 6.083,27.315 11.123,21.37 11.123,14.263 11.123,7.384 6.377,1.637 0,0 m -133.462,-114.073 c -69.266,0 -125.616,56.361 -125.616,125.634 0,66.324 51.695,120.776 116.911,125.266 -0.776,-1.226 -2.568,-2.365 -5.525,-4.023 -4.337,-2.442 -10.271,-5.776 -10.271,-12.79 0,-2.314 1.876,-4.195 4.191,-4.195 2.312,0 4.186,1.881 4.186,4.195 0,1.903 1.918,3.194 5.996,5.487 4.088,2.294 9.528,5.422 10.147,11.664 8.783,0 17.363,-0.92 25.642,-2.643 -0.811,-0.524 -1.743,-1.083 -2.883,-1.718 -4.327,-2.442 -10.255,-5.776 -10.255,-12.79 0,-2.314 1.871,-4.195 4.185,-4.195 2.317,0 4.189,1.881 4.189,4.195 0,1.91 1.919,3.194 5.987,5.487 2.79,1.568 6.234,3.531 8.336,6.598 52.171,-15.263 90.4,-63.502 90.4,-120.538 0,-69.273 -56.353,-125.634 -125.62,-125.634 M -278.223,14.263 c 0,7.175 5.132,13.157 11.91,14.5 -0.724,-5.642 -1.138,-11.373 -1.138,-17.202 0,-3.909 0.204,-7.783 0.535,-11.609 -6.473,1.57 -11.307,7.369 -11.307,14.311 m 297.72,0 c 0,12.206 -9.496,22.211 -21.478,23.077 -9.683,49.463 -46.662,89.23 -94.558,102.98 -1.028,5.656 -6.156,8.59 -10.039,10.771 -4.068,2.29 -5.987,3.584 -5.987,5.5 0,1.921 1.919,3.212 5.991,5.5 4.328,2.44 10.252,5.779 10.252,12.806 0,2.312 -1.874,4.188 -4.187,4.188 -2.313,0 -4.189,-1.876 -4.189,-4.188 0,-1.926 -1.917,-3.207 -5.986,-5.505 -4.33,-2.437 -10.255,-5.772 -10.255,-12.801 0,-7.02 5.925,-10.36 10.251,-12.796 0.222,-0.118 0.365,-0.22 0.572,-0.333 -7.585,1.336 -15.382,2.077 -23.346,2.077 -0.859,0 -1.709,-0.052 -2.561,-0.064 -2.12,2.503 -5.088,4.217 -7.567,5.616 -4.078,2.29 -5.996,3.584 -5.996,5.5 0,1.921 1.924,3.212 6.001,5.5 4.329,2.44 10.261,5.779 10.261,12.806 0,2.312 -1.874,4.188 -4.189,4.188 -2.316,0 -4.186,-1.876 -4.186,-4.188 0,-1.918 -1.918,-3.207 -5.996,-5.505 -4.334,-2.437 -10.268,-5.772 -10.268,-12.801 0,-6.291 4.757,-9.621 8.86,-11.992 -57.976,-6.773 -104.756,-50.682 -115.834,-107.248 -12.067,-0.779 -21.661,-10.814 -21.661,-23.088 0,-11.924 9.074,-21.764 20.682,-23.01 9.812,-64.289 65.472,-113.701 132.454,-113.701 66.993,0 122.658,49.423 132.461,113.719 11.515,1.328 20.498,11.125 20.498,22.992" />
      </g>
      <g
         transform="translate(432.3682,5910.2607)"
         id="g102">
        <path
           inkscape:connector-curvature="0"
           id="path104"
           style="fill:#00354b;fill-opacity:1;fill-rule:nonzero;stroke:none"
           d="m 0,0 c -0.045,-0.312 -0.087,-0.621 -0.087,-0.943 v -5.952 c 0,-3.299 2.491,-5.939 5.578,-5.939 H 12.2 c 3.068,0 5.573,2.64 5.573,5.939 v 5.787 l 70.025,-4.317 c -10.93,-23.359 -34.692,-38.688 -60.805,-38.688 -29.492,0 -54.983,18.806 -63.837,46.386 z m -46.516,5.865 c 7.955,-34.355 38.18,-58.357 73.509,-58.357 31.523,0 59.999,19.873 70.863,49.439 l 1.938,5.273 -147.573,9.116 z" />
      </g>
      <g
         transform="translate(591.9658,5935.8535)"
         id="g106">
        <path
           inkscape:connector-curvature="0"
           id="path108"
           style="fill:#ffeac2;fill-opacity:1;fill-rule:nonzero;stroke:none"
           d="m 0,0 c 0.327,3.812 0.533,7.667 0.533,11.561 0,5.813 -0.412,11.537 -1.137,17.164 C 6.083,27.315 11.123,21.37 11.123,14.263 11.123,7.384 6.377,1.637 0,0" />
      </g>
      <g
         transform="translate(313.7432,5950.1162)"
         id="g110">
        <path
           inkscape:connector-curvature="0"
           id="path112"
           style="fill:#ffeac2;fill-opacity:1;fill-rule:nonzero;stroke:none"
           d="M 0,0 C 0,7.176 5.132,13.157 11.91,14.5 11.186,8.858 10.771,3.127 10.771,-2.702 c 0,-3.908 0.205,-7.782 0.536,-11.609 C 4.834,-12.74 0,-6.941 0,0" />
      </g>
      <g
         transform="translate(432.3682,5910.2607)"
         id="g114">
        <path
           inkscape:connector-curvature="0"
           id="path116"
           style="fill:#ff7f7b;fill-opacity:1;fill-rule:nonzero;stroke:none"
           d="m 0,0 c -0.045,-0.312 -0.087,-0.621 -0.087,-0.943 v -5.952 c 0,-3.299 2.491,-5.939 5.578,-5.939 H 12.2 c 3.068,0 5.573,2.64 5.573,5.939 v 5.787 l 70.025,-4.317 c -10.93,-23.359 -34.692,-38.688 -60.805,-38.688 -29.492,0 -54.983,18.806 -63.837,46.386 z" />
      </g>
    </g>
  </g>
</svg>
